<svg id="Layer_1" data-name="Layer 1" xmlns="http://www.w3.org/2000/svg" viewBox="0 0 200 200">
  <path d="M180.7,5.5a13.8,13.8,0,0,1,13.8,13.8V180.7a13.8,13.8,0,0,1-13.8,13.8H19.3A13.8,13.8,0,0,1,5.5,180.7V19.3A13.8,13.8,0,0,1,19.3,5.5H180.7m0-3H19.3A16.8,16.8,0,0,0,2.5,19.3V180.7a16.8,16.8,0,0,0,16.8,16.8H180.7a16.8,16.8,0,0,0,16.8-16.8V19.3A16.8,16.8,0,0,0,180.7,2.5Z"/>
  <circle cx="155.3" cy="44.5" r="24"/>
  <circle cx="100" cy="100" r="24"/>
  <circle cx="155.3" cy="155.5" r="24"/>
  <circle cx="44.3" cy="44.5" r="24"/>
  <circle cx="44.3" cy="155.5" r="24"/>
</svg>
